<?xml version="1.0" encoding="utf-8"?>
<!-- Generator: Adobe Illustrator 22.0.0, SVG Export Plug-In . SVG Version: 6.00 Build 0)  -->
<svg version="1.1" id="Layer_1" xmlns="http://www.w3.org/2000/svg" xmlns:xlink="http://www.w3.org/1999/xlink" x="0px" y="0px"
	 viewBox="0 0 1262.9 338.6" style="enable-background:new 0 0 1262.9 338.6;" xml:space="preserve">
<style type="text/css">
	.st0{opacity:0.54;fill:#B3B3B3;enable-background:new    ;}
	.st1{fill:#FFFFFF;}
</style>
<title>hacktx_icon</title>
<g id="Layer_1_1_">
	<polygon class="st0" points="1080.8,41.8 1079.2,40.1 1079.8,39.5 	"/>
	<path class="st1" d="M113.5,6.9c0-4.2,2.5-6.7,6.8-6.7h43.4c5.1,0,7.2,2.5,7.2,6.7v323.8c0,4.2-2.1,6.7-7.2,6.7h-43.4
		c-4.2,0-6.8-2.5-6.8-6.7V196.6h-54v134.1c0,4.2-2.5,6.7-6.8,6.7H9.4c-5.1,0-7.2-2.5-7.2-6.7V6.9c0-4.2,2.1-6.7,7.2-6.7h43.4
		c4.2,0,6.8,2.5,6.8,6.7V141h54L113.5,6.9z"/>
	<path class="st1" d="M363.1,337.4c-3.8,0-5.9-2.1-6.8-5.9L344.6,270h-75l-11.4,61.5c-0.8,3.8-2.9,5.9-6.7,5.9h-45.1
		c-4.6,0-6.8-2.5-5.5-7.2l70-324.2c0.9-4.2,3.4-5.9,7.2-5.9h58.6c3.8,0,6.3,1.7,7.2,5.9l70,324.2c0.8,4.6-0.8,7.2-5.9,7.2
		L363.1,337.4z M307,73.9l-27,147.1h54L307,73.9z"/>
	<path class="st1" d="M612.3,106.4c0,4.2-2.5,6.8-6.7,6.8h-42.2c-4.6,0-6.7-2.5-6.7-6.8V72.7c0-11-5.9-16.9-16.9-16.9h-21.9
		c-11.4,0-16.9,5.9-16.9,16.9v192.2c0,11.4,5.9,16.9,16.9,16.9h21.9c11,0,16.9-5.5,16.9-16.9v-33.7c0-4.2,2.1-6.7,6.7-6.7h42.2
		c4.2,0,6.7,2.5,6.7,6.7v45.5c0,39.6-21.5,60.7-60.7,60.7h-47.2c-39.6,0-61.1-21.1-61.1-60.7V60.9c0-39.6,21.5-60.7,61.1-60.7h47.2
		c39.2,0,60.7,21.1,60.7,60.7V106.4z"/>
	<path class="st1" d="M790.2,337.4c-5.1,0-8-2.1-9.7-6.3l-53.1-125.2l-15.6,29.9V329c0,5.5-3,8.4-8.4,8.4h-40.5
		c-5.5,0-8.4-3-8.4-8.4V8.6c0-5.5,3-8.4,8.4-8.4h40.5c5.5,0,8.4,3,8.4,8.4v130.7L776.7,6.5c2.1-4.2,5.1-6.3,9.7-6.3h44.3
		c6.3,0,8.8,4.2,5.9,10.1l-71.7,147.1l76.3,170.3c3,5.5,0.4,9.7-6.3,9.7H790.2z"/>
	<path class="st1" d="M1033.9,0.2c4.6,0,6.8,2.5,6.8,6.7v42.2c0,4.2-2.1,6.8-6.8,6.8H985v274.9c0,4.6-2.1,6.7-6.8,6.7h-43.9
		c-4.2,0-6.8-2.1-6.8-6.7V55.8h-48.9c-4.2,0-6.8-2.5-6.8-6.8V6.9c0-4.2,2.5-6.7,6.8-6.7H1033.9z"/>
	<path class="st1" d="M1262.4,327.3c2.5,5.9,0.4,10.1-6.3,10.1h-43.4c-4.6,0-8-1.7-9.7-5.9l-40.5-102l-40.5,102
		c-1.7,4.2-5.1,5.9-9.7,5.9h-43.4c-6.8,0-8.9-4.2-6.3-10.1l66.6-161.9l-64.1-155.1c-2.5-5.9-0.4-10.1,6.3-10.1h42.2
		c4.6,0,8,1.7,9.7,5.9l39.2,99.9l39.2-99.9c1.7-4.2,5.1-5.9,9.7-5.9h42.2c6.7,0,8.8,4.2,6.3,10.1l-64.5,155.1L1262.4,327.3z"/>
</g>
</svg>
