<?xml version="1.0" encoding="UTF-8" standalone="no"?>
<!-- Created with Inkscape (http://www.inkscape.org/) -->

<svg
   xmlns:dc="http://purl.org/dc/elements/1.1/"
   xmlns:cc="http://creativecommons.org/ns#"
   xmlns:rdf="http://www.w3.org/1999/02/22-rdf-syntax-ns#"
   xmlns:svg="http://www.w3.org/2000/svg"
   xmlns="http://www.w3.org/2000/svg"
   xmlns:xlink="http://www.w3.org/1999/xlink"
   xmlns:sodipodi="http://sodipodi.sourceforge.net/DTD/sodipodi-0.dtd"
   xmlns:inkscape="http://www.inkscape.org/namespaces/inkscape"
   width="1058.3334mm"
   height="284.66006mm"
   viewBox="0 0 1058.3334 284.66006"
   version="1.1"
   id="svg5197"
   inkscape:version="0.92.1 r15371"
   sodipodi:docname="logo.svg">
  <defs
     id="defs5191">
    <linearGradient
       inkscape:collect="always"
       xlink:href="#linearGradient7330"
       id="linearGradient5089"
       gradientUnits="userSpaceOnUse"
       x1="-329.11542"
       y1="205.26659"
       x2="-211.2188"
       y2="205.26659" />
    <linearGradient
       id="linearGradient7330"
       inkscape:collect="always">
      <stop
         id="stop7326"
         offset="0"
         style="stop-color:#ff0066;stop-opacity:1;" />
      <stop
         id="stop7328"
         offset="1"
         style="stop-color:#ffb32a;stop-opacity:1" />
    </linearGradient>
    <linearGradient
       inkscape:collect="always"
       xlink:href="#linearGradient7330"
       id="linearGradient5065"
       gradientUnits="userSpaceOnUse"
       x1="-329.11542"
       y1="205.26659"
       x2="-211.2188"
       y2="205.26659"
       gradientTransform="matrix(3.0632074,0,0,3.0632074,1709.4134,-2173.7836)" />
  </defs>
  <sodipodi:namedview
     id="base"
     pagecolor="#ffffff"
     bordercolor="#666666"
     borderopacity="1.0"
     inkscape:pageopacity="0.0"
     inkscape:pageshadow="2"
     inkscape:zoom="0.12374369"
     inkscape:cx="3609.1586"
     inkscape:cy="738.79089"
     inkscape:document-units="mm"
     inkscape:current-layer="layer1"
     showgrid="false"
     fit-margin-top="0"
     fit-margin-left="0"
     fit-margin-right="0"
     fit-margin-bottom="0"
     inkscape:window-width="1920"
     inkscape:window-height="1001"
     inkscape:window-x="-9"
     inkscape:window-y="-9"
     inkscape:window-maximized="1" />
  <metadata
     id="metadata5194">
    <rdf:RDF>
      <cc:Work
         rdf:about="">
        <dc:format>image/svg+xml</dc:format>
        <dc:type
           rdf:resource="http://purl.org/dc/dcmitype/StillImage" />
        <dc:title></dc:title>
      </cc:Work>
    </rdf:RDF>
  </metadata>
  <g
     inkscape:label="Layer 1"
     inkscape:groupmode="layer"
     id="layer1"
     transform="translate(878.7661,10.200183)">
    <g
       transform="matrix(161.92869,0,0,161.92869,25018.863,36086.175)"
       id="g5063">
      <g
         inkscape:export-ydpi="338.42538"
         inkscape:export-xdpi="338.42538"
         transform="matrix(0.05520531,0,0,0.05520531,-141.74978,-233.69963)"
         id="g5039"
         style="font-style:normal;font-variant:normal;font-weight:normal;font-stretch:normal;font-size:25.82233047px;line-height:1.25;font-family:Razor;-inkscape-font-specification:'Razor, Normal';font-variant-ligatures:normal;font-variant-caps:normal;font-variant-numeric:normal;font-feature-settings:normal;text-align:start;letter-spacing:0px;word-spacing:0px;writing-mode:lr-tb;text-anchor:start;fill:url(#linearGradient5089);fill-opacity:1;stroke:url(#linearGradient5089);stroke-width:0.146;stroke-miterlimit:4;stroke-dasharray:none"
         aria-label="HACKTX" />
      <g
         id="g5128"
         inkscape:export-filename="C:\Users\bonga\logo.png"
         inkscape:export-xdpi="317.65683"
         inkscape:export-ydpi="317.65683">
        <path
           id="path5027"
           transform="matrix(0.01802206,0,0,0.01802206,-172.55693,-194.52357)"
           d="m 1019.6211,-1574.4062 c -0.1211,0 -0.2446,0.032 -0.3633,0.092 -0.3955,0.2374 -0.6318,0.713 -0.3945,1.1875 l 10.2832,22.543 -15.584,33.6953 c -0.1581,0.2374 -0.078,0.6338 0.08,0.8711 0.158,0.2374 0.3945,0.3946 0.7109,0.3946 h 5.3008 c 0.3164,0 0.6328,-0.2365 0.791,-0.5528 l 25.707,-55.8437 h 3.2422 l -25.3105,55.1308 c -0.1581,0.3164 -0.1581,0.6338 0,0.8711 0.158,0.2374 0.4746,0.3946 0.791,0.3946 h 5.2207 c 0.3164,0 0.6328,-0.2365 0.791,-0.5528 l 25.7852,-55.8437 h 3.2441 l -13.1308,28.4746 v 0.08 0.078 0.08 0.078 h -0.08 v 0.078 0.08 h 0.08 v 0.078 0.08 0.078 0.08 l 12.1816,26.498 c 0.1581,0.3164 0.4746,0.4746 0.791,0.4747 0.1581,0 0.2365,0 0.3945,-0.08 0.4746,-0.1581 0.6338,-0.711 0.3965,-1.1856 l -11.9453,-26.1035 13.5274,-29.4238 c 0.079,-0.3164 0.078,-0.6338 -0.08,-0.8711 -0.1581,-0.2374 -0.4736,-0.3945 -0.711,-0.3945 h -5.3007 c -0.3164,0 -0.6328,0.2364 -0.7911,0.5527 l -25.707,55.8437 h -3.3222 l 25.3906,-55.1308 c 0.158,-0.3164 0.158,-0.6338 0,-0.8711 -0.2374,-0.2374 -0.4746,-0.3945 -0.791,-0.3945 h -5.2207 c -0.3955,0 -0.712,0.2364 -0.7911,0.5527 l -25.7851,55.8437 h -3.2442 l 15.1875,-32.7461 v -0.08 c 0.079,0 0.08,-0.078 0.08,-0.078 v -0.08 -0.078 -0.078 -0.08 -0.078 -0.08 c 0,0 0,-0.078 -0.08,-0.078 v -0.08 l -10.5195,-22.8593 c -0.1185,-0.356 -0.4608,-0.5776 -0.8242,-0.5664 z m -317.26172,0.012 c -0.47462,0 -0.8711,0.3965 -0.8711,0.8711 v 27.9218 c 0,0.5537 0.39648,0.9493 0.8711,0.9493 h 4.66601 l -5.14062,3.875 c -0.2374,0.158 -0.39649,0.3964 -0.39649,0.7128 v 5.8536 0.078 0.078 c 0,0 10e-4,0.079 0.0801,0.1582 0,0.079 -9.1e-4,0.159 0.0781,0.2383 l 0.15821,0.1582 c 0.079,0.079 0.0792,0.078 0.1582,0.078 0.2374,0.1581 0.31643,0.1582 0.47461,0.1582 0.3164,-0.079 0.47463,-0.1571 0.63281,-0.3945 0.47459,-0.2374 1.10744,-0.7911 2.21485,-1.582 l 12.57617,-9.4141 h 4.82617 l -20.80469,15.6621 c -0.2374,0.1584 -0.39453,0.3965 -0.39453,0.7129 v 5.8535 c 0,0.3955 0.15806,0.6329 0.47461,0.791 0.3164,0.1581 0.71191,0.157 0.94922,-0.08 l 30.61133,-22.9395 h 4.82422 l -36.46485,27.4473 c -0.39549,0.2374 -0.47351,0.7919 -0.23633,1.1875 0.2374,0.2374 0.47364,0.3945 0.71094,0.3945 0.2374,0 0.39647,-0.079 0.55469,-0.1582 l 38.67969,-29.1074 c 0.3164,-0.1584 0.39553,-0.6328 0.3164,-0.9492 -0.15779,-0.3949 -0.47459,-0.6321 -0.86914,-0.6329 h -0.002 -7.83008 c -0.15837,0 -0.39452,0.079 -0.55273,0.1582 l -29.34571,22.0684 v -3.6387 l 22.6211,-17.0058 c 0.3164,-0.1584 0.3955,-0.6328 0.3164,-0.9492 -0.15806,-0.3955 -0.47365,-0.6329 -0.86914,-0.6329 h -7.83203 c -0.2374,0 -0.39455,0.079 -0.55273,0.1582 0,0 -9.88684,7.5157 -13.6836,10.3633 v -3.6386 l 6.96094,-5.3008 c 0.3164,-0.1584 0.3955,-0.6328 0.31641,-0.9492 -0.15806,-0.3955 -0.47561,-0.6329 -0.8711,-0.6329 h -6.40625 v -27.0507 c 0,-0.4746 -0.39551,-0.8711 -0.94921,-0.8711 z m 87.16992,0 c -0.3164,0 -0.6328,0.2374 -0.79102,0.4746 l -6.56445,13.4472 c -0.2374,0.3955 -0.0801,0.8702 0.23633,1.1075 l 20.5664,15.5039 2.84766,5.7734 -24.44141,-18.4297 c -0.2374,-0.158 -0.47561,-0.1582 -0.71289,-0.1582 -0.3164,0.079 -0.55372,0.2374 -0.63281,0.4746 l -2.13477,4.3496 c -0.15806,0.3955 -0.079,0.8702 0.31641,1.1075 l 33.93359,25.4707 2.76758,5.7734 -37.73047,-28.3965 c -0.2374,-0.158 -0.47266,-0.2375 -0.78906,-0.1582 -0.2374,0.079 -0.47556,0.2374 -0.55469,0.4746 l -15.02929,30.6914 c -0.2374,0.3955 9.9e-4,0.9483 0.39648,1.1856 0.15806,0.079 0.31544,0.08 0.39453,0.08 0.39552,0 0.71288,-0.1584 0.8711,-0.4747 l 14.4746,-29.6621 39.94532,29.9786 c 0.3164,0.2373 0.79102,0.2363 1.10742,-0.08 0.31637,-0.2374 0.39442,-0.711 0.23633,-1.0274 l -4.58789,-9.334 c -0.079,-0.158 -0.15699,-0.2374 -0.23633,-0.3164 l -33.53906,-25.2324 1.26562,-2.6113 26.57813,19.9336 c 0.39549,0.2374 0.79102,0.2374 1.10742,0 0.31637,-0.2374 0.47351,-0.7119 0.23633,-1.1074 l -4.50782,-9.334 c -0.079,-0.079 -0.15807,-0.2374 -0.3164,-0.3164 l -20.16992,-15.1075 5.45703,-11.1523 9.33398,19.1406 c 0.2374,0.3955 0.79198,0.6338 1.1875,0.3965 0.47458,-0.2374 0.63184,-0.792 0.39453,-1.1875 l -10.125,-20.8027 c -0.15806,-0.2374 -0.47461,-0.4746 -0.79101,-0.4746 z m 65.97851,0 c -10.6784,0 -20.56559,5.8538 -25.70703,15.1875 -0.2374,0.3955 -0.15718,0.8711 0.23828,1.1875 l 44.2168,33.2207 c -0.71189,0.7119 -1.50391,1.3447 -2.29492,1.8984 -4.90414,-3.7177 -42.63476,-32.0351 -42.79297,-32.1934 -0.2374,-0.158 -0.55274,-0.1591 -0.86914,-0.08 -0.2374,0.079 -0.4756,0.2384 -0.55469,0.5547 -0.55367,1.661 -1.02832,3.4004 -1.26562,5.1406 -0.079,0.3164 0.079,0.6328 0.3164,0.791 0.2374,0.1581 32.19357,24.2052 38.9961,29.2676 -1.10738,0.4746 -2.21389,0.8701 -3.4004,1.1074 l -33.30078,-24.9961 c -1.89836,-1.4238 -1.89942,-1.4228 -2.45312,-1.1855 -0.3164,0.158 -0.47461,0.4746 -0.47461,0.791 0.079,2.3729 0.47462,4.6661 1.10742,6.8808 0,0.3164 0.1591,0.3956 1.50391,1.4239 l 23.80859,17.7968 c -7.6726,-0.7909 -14.79213,-4.9025 -19.45898,-11.2304 -0.2374,-0.3955 -0.87014,-0.5546 -1.26563,-0.2383 -0.39549,0.3164 -0.47472,0.8701 -0.1582,1.2656 5.53693,7.5935 14.39578,12.1817 23.80859,12.1817 0.39549,0 0.71288,-0.2375 0.8711,-0.6329 0.079,-0.3164 -10e-6,-0.7119 -0.31641,-0.9492 -0.2374,-0.2374 -24.44149,-18.3506 -27.13086,-20.3281 -0.39552,-1.4238 -0.6328,-2.8477 -0.79102,-4.2715 6.80253,5.1415 33.22072,24.9951 33.53711,25.2324 0.2374,0.1581 0.47562,0.2376 0.71289,0.1582 1.8984,-0.4745 3.79691,-1.1084 5.53711,-1.9785 0.31637,-0.079 0.47461,-0.3945 0.47461,-0.7109 0.079,-0.3164 -0.079,-0.6328 -0.3164,-0.791 l -38.44336,-28.8711 c -0.55371,-0.4746 -1.02735,-0.792 -1.34375,-1.0293 0.2374,-1.0283 0.47462,-2.0557 0.79101,-3.084 0.2374,0.2374 0.47465,0.3955 0.79102,0.6328 l 41.52734,31.2441 c 0.3164,0.2374 0.79103,0.2374 1.10742,0 1.34469,-0.9491 2.61041,-2.0576 3.79688,-3.2441 0.15806,-0.1581 0.23633,-0.3945 0.23633,-0.7109 0,-0.2374 -0.15807,-0.4746 -0.31641,-0.6328 l -44.5332,-33.379 c 4.98322,-8.4636 14.00029,-13.6054 23.80859,-13.6054 7.35623,0 14.31655,2.8478 19.53711,8.0683 0.31637,0.3164 0.87014,0.3164 1.26563,0 0.3164,-0.3164 0.3164,-0.9492 0,-1.2656 -5.53693,-5.5369 -12.97192,-8.623 -20.80274,-8.623 z m 33.78516,0 c -0.47461,0 -0.87109,0.3965 -0.87109,0.8711 v 57.0293 c 0,0.4746 0.39648,0.8711 0.87109,0.8711 0.55367,0 0.94922,-0.3965 0.94922,-0.8711 v -57.0293 c 0,-0.4746 -0.39555,-0.8711 -0.94922,-0.8711 z m 27.52539,0 c -0.3164,0 -0.55275,0.159 -0.71094,0.3965 l -21.51562,28.4746 c -0.2374,0.3164 -0.2374,0.7129 0,1.0293 l 21.51562,28.4746 c 0.15806,0.2374 0.39454,0.3965 0.71094,0.3965 0.15806,0 0.31642,-0.079 0.47461,-0.1582 0.39549,-0.3164 0.47549,-0.8702 0.23828,-1.2657 l -21.04102,-28.0019 20.72461,-27.5254 h 3.63868 l -20.33008,27.0508 c -0.2374,0.3164 -0.2374,0.7129 0,1.0293 l 21.4375,28.4746 c 0.15806,0.2374 0.39454,0.3965 0.71094,0.3965 h 5.85351 c 0.39552,0 0.71288,-0.1584 0.87109,-0.4747 0.15807,-0.3164 0.078,-0.7119 -0.0801,-0.9492 L 908.27539,-1545.0488 929,-1572.5742 h 3.63867 l -20.32812,27.0508 c -0.2374,0.3164 -0.2374,0.7129 0,1.0293 l 21.43554,28.4746 c 0.3164,0.3955 0.87014,0.4754 1.26563,0.2383 0.39552,-0.3164 0.47475,-0.8702 0.1582,-1.2657 l -21.04101,-28.0019 21.04101,-27.9219 c 0.2374,-0.2374 0.23649,-0.6328 0.0781,-0.9492 -0.15806,-0.3164 -0.47462,-0.4746 -0.79102,-0.4746 h -5.93164 c -0.2374,0 -0.47363,0.159 -0.71094,0.3965 l -21.4375,28.4746 c -0.2374,0.3164 -0.2374,0.7129 0,1.0293 l 20.40821,27.0507 h -3.63868 l -20.80273,-27.6054 21.04102,-27.9219 c 0.23739,-0.2374 0.23649,-0.6328 0.0781,-0.9492 -0.15806,-0.3164 -0.47462,-0.4746 -0.79101,-0.4746 z m 31.33398,0 c -0.47458,0 -0.86914,0.3965 -0.86914,0.8711 0,0.5537 0.39456,0.9492 0.86914,0.9492 h 22.22852 v 6.248 c 0,0.3164 0.23742,0.6328 0.47461,0.791 0.3164,0.1581 0.71191,0.08 0.94922,-0.078 l 9.2539,-6.9609 h 4.9043 l -15.1875,11.3887 c -0.2374,0.2374 -0.39453,0.4746 -0.39453,0.791 v 5.8535 c 0,0.3955 0.23742,0.7129 0.47461,0.8711 0.3164,0.158 0.71191,0.078 0.94922,-0.08 l 25.07422,-18.8242 h 4.90429 l -31.00781,23.2539 c -0.2374,0.2374 -0.39453,0.4756 -0.39453,0.7129 v 32.1133 c 0,0.4746 0.39456,0.8711 0.86914,0.8711 0.55371,0 0.94922,-0.3965 0.94922,-0.8711 v -31.6387 l 32.82618,-24.6797 c 0.3164,-0.1581 0.3955,-0.6328 0.3164,-0.9492 -0.1581,-0.3955 -0.4737,-0.6328 -0.8691,-0.6328 h -7.9102 c -0.2374,0 -0.39647,0.079 -0.55469,0.1582 l -23.80859,17.9551 v -3.7168 l 17.00586,-12.8145 c 0.3164,-0.1581 0.47462,-0.6328 0.3164,-0.9492 -0.15806,-0.3955 -0.47365,-0.6328 -0.86914,-0.6328 h -7.91015 c -0.15806,0 -0.31643,0.079 -0.47461,0.1582 l -8.06836,6.0918 v -5.3789 c 0,-0.4746 -0.39551,-0.8711 -0.94922,-0.8711 z m -200.15429,0.2383 c -0.47459,0 -0.94727,0.3945 -0.94727,0.8691 v 56.793 c 0,0.4746 0.47268,0.8711 0.94727,0.8711 0.47461,0 0.87109,-0.3965 0.87109,-0.8711 v -56.793 c 0,-0.4746 -0.39648,-0.8691 -0.87109,-0.8691 z"
           style="font-style:normal;font-variant:normal;font-weight:normal;font-stretch:normal;font-size:25.82233047px;line-height:1.25;font-family:Razor;-inkscape-font-specification:'Razor, Normal';font-variant-ligatures:normal;font-variant-caps:normal;font-variant-numeric:normal;font-feature-settings:normal;text-align:start;letter-spacing:0px;word-spacing:0px;writing-mode:lr-tb;text-anchor:start;fill:url(#linearGradient5065);fill-opacity:1;stroke:url(#linearGradient5065);stroke-width:1.95779526;stroke-miterlimit:4;stroke-dasharray:none"
           inkscape:connector-curvature="0" />
        <path
           style="font-style:normal;font-variant:normal;font-weight:normal;font-stretch:normal;font-size:9.51096344px;line-height:1.25;font-family:'SF Alien Encounters Solid';-inkscape-font-specification:'SF Alien Encounters Solid, Normal';font-variant-ligatures:normal;font-variant-caps:normal;font-variant-numeric:normal;font-feature-settings:normal;text-align:start;letter-spacing:0px;word-spacing:0px;writing-mode:lr-tb;text-anchor:start;fill:#bbb9ea;fill-opacity:1;stroke:none;stroke-width:0.01073888"
           d="m -159.93035,-221.45632 v 0.058 h 0.17079 a 0.00106708,0.00106708 0 0 1 1e-4,0 0.00106708,0.00106708 0 0 1 1.2e-4,0 0.00106708,0.00106708 0 0 1 2.7e-4,1.1e-4 0.00106708,0.00106708 0 0 1 1.1e-4,0 0.00106708,0.00106708 0 0 1 1.1e-4,1.1e-4 0.00106708,0.00106708 0 0 1 1.1e-4,1.1e-4 0.00106708,0.00106708 0 0 1 1.1e-4,1.1e-4 0.00106708,0.00106708 0 0 1 1.1e-4,1.1e-4 0.00106708,0.00106708 0 0 1 1.2e-4,2.8e-4 0.00106708,0.00106708 0 0 1 1e-4,1.1e-4 0.00106708,0.00106708 0 0 1 0,1.1e-4 0.00106708,0.00106708 0 0 1 0,1.1e-4 0.00106708,0.00106708 0 0 1 0,1e-4 v 0.043 a 0.00106708,0.00106708 0 0 1 0,1.1e-4 0.00106708,0.00106708 0 0 1 0,1.1e-4 0.00106708,0.00106708 0 0 1 -1e-4,2.7e-4 0.00106708,0.00106708 0 0 1 0,1.2e-4 0.00106708,0.00106708 0 0 1 -1.2e-4,1e-4 0.00106708,0.00106708 0 0 1 -1.1e-4,1.2e-4 0.00106708,0.00106708 0 0 1 -1.1e-4,1.1e-4 0.00106708,0.00106708 0 0 1 -1.1e-4,1.1e-4 0.00106708,0.00106708 0 0 1 -2.7e-4,1.1e-4 0.00106708,0.00106708 0 0 1 -1.2e-4,1.1e-4 0.00106708,0.00106708 0 0 1 -1e-4,0 0.00106708,0.00106708 0 0 1 -1.2e-4,0 0.00106708,0.00106708 0 0 1 -1e-4,0 h -0.12888 c -0.0118,0 -0.0216,0.004 -0.0298,0.0122 -0.008,0.008 -0.0122,0.0179 -0.0122,0.0297 v 0.15357 h 0.23412 v -0.058 h -0.17078 a 0.00106708,0.00106708 0 0 1 -1.1e-4,0 0.00106708,0.00106708 0 0 1 -1.1e-4,0 0.00106708,0.00106708 0 0 1 -2.7e-4,-1.1e-4 0.00106708,0.00106708 0 0 1 -1.1e-4,0 0.00106708,0.00106708 0 0 1 -1.2e-4,-1.1e-4 0.00106708,0.00106708 0 0 1 -1e-4,-1.1e-4 0.00106708,0.00106708 0 0 1 -1.2e-4,-1.1e-4 0.00106708,0.00106708 0 0 1 -1.1e-4,-1.1e-4 0.00106708,0.00106708 0 0 1 -1.1e-4,-2.7e-4 0.00106708,0.00106708 0 0 1 -1.1e-4,-1.2e-4 0.00106708,0.00106708 0 0 1 0,-1.1e-4 0.00106708,0.00106708 0 0 1 0,-1.1e-4 0.00106708,0.00106708 0 0 1 0,-1.1e-4 v -0.0772 a 0.00106708,0.00106708 0 0 1 0,-1.1e-4 0.00106708,0.00106708 0 0 1 0,-1.1e-4 0.00106708,0.00106708 0 0 1 1.1e-4,-2.7e-4 0.00106708,0.00106708 0 0 1 0,-1.2e-4 0.00106708,0.00106708 0 0 1 1.1e-4,-1.1e-4 0.00106708,0.00106708 0 0 1 1.1e-4,-1e-4 0.00106708,0.00106708 0 0 1 1.2e-4,-1.2e-4 0.00106708,0.00106708 0 0 1 1e-4,-1.1e-4 0.00106708,0.00106708 0 0 1 2.8e-4,-1.1e-4 0.00106708,0.00106708 0 0 1 1.1e-4,-1.1e-4 0.00106708,0.00106708 0 0 1 1.1e-4,0 0.00106708,0.00106708 0 0 1 1.1e-4,0 0.00106708,0.00106708 0 0 1 1.1e-4,0 h 0.12888 c 0.0118,0 0.0216,-0.004 0.0297,-0.0122 0.008,-0.008 0.0122,-0.0178 0.0122,-0.0297 v -0.0773 c 0,-0.0118 -0.004,-0.0216 -0.0122,-0.0298 -0.008,-0.008 -0.0179,-0.0121 -0.0297,-0.0121 z"
           id="path5041"
           inkscape:connector-curvature="0"
           inkscape:export-xdpi="338.42538"
           inkscape:export-ydpi="338.42538" />
        <path
           style="font-style:normal;font-variant:normal;font-weight:normal;font-stretch:normal;font-size:9.51096344px;line-height:1.25;font-family:'SF Alien Encounters Solid';-inkscape-font-specification:'SF Alien Encounters Solid, Normal';font-variant-ligatures:normal;font-variant-caps:normal;font-variant-numeric:normal;font-feature-settings:normal;text-align:start;letter-spacing:0px;word-spacing:0px;writing-mode:lr-tb;text-anchor:start;fill:#bbb9ea;fill-opacity:1;stroke:none;stroke-width:0.01073888"
           d="m -157.76473,-221.45632 c -0.0118,0 -0.0216,0.004 -0.0297,0.0122 -0.008,0.008 -0.0122,0.0179 -0.0122,0.0297 v 0.21479 c 0,0.0118 0.004,0.0216 0.0122,0.0298 0.008,0.008 0.0179,0.0122 0.0297,0.0122 h 0.1504 c 0.0118,0 0.0216,-0.004 0.0297,-0.0122 0.008,-0.008 0.0122,-0.018 0.0122,-0.0298 v -0.21479 c 0,-0.0118 -0.004,-0.0216 -0.0122,-0.0297 -0.008,-0.008 -0.0178,-0.0122 -0.0297,-0.0122 z m 0.0212,0.058 h 2.7e-4 0.10737 a 0.00106708,0.00106708 0 0 1 1e-4,0 0.00106708,0.00106708 0 0 1 1.1e-4,0 0.00106708,0.00106708 0 0 1 2.8e-4,1.1e-4 0.00106708,0.00106708 0 0 1 1.1e-4,0 0.00106708,0.00106708 0 0 1 1.1e-4,1.1e-4 0.00106708,0.00106708 0 0 1 1.1e-4,1.1e-4 0.00106708,0.00106708 0 0 1 1.1e-4,1.1e-4 0.00106708,0.00106708 0 0 1 1.1e-4,1.1e-4 0.00106708,0.00106708 0 0 1 1.1e-4,2.8e-4 0.00106708,0.00106708 0 0 1 1.1e-4,1.1e-4 0.00106708,0.00106708 0 0 1 0,1.1e-4 0.00106708,0.00106708 0 0 1 0,1.1e-4 0.00106708,0.00106708 0 0 1 0,1e-4 v 0.18042 a 0.00106708,0.00106708 0 0 1 0,1.1e-4 0.00106708,0.00106708 0 0 1 0,1.1e-4 0.00106708,0.00106708 0 0 1 -1.1e-4,2.8e-4 0.00106708,0.00106708 0 0 1 0,1.1e-4 0.00106708,0.00106708 0 0 1 -1.1e-4,1.1e-4 0.00106708,0.00106708 0 0 1 -1.1e-4,1.1e-4 0.00106708,0.00106708 0 0 1 -1.1e-4,1.1e-4 0.00106708,0.00106708 0 0 1 -1.1e-4,1.1e-4 0.00106708,0.00106708 0 0 1 -2.8e-4,1.1e-4 0.00106708,0.00106708 0 0 1 -1.1e-4,1.1e-4 0.00106708,0.00106708 0 0 1 -1.1e-4,0 0.00106708,0.00106708 0 0 1 -1.1e-4,0 0.00106708,0.00106708 0 0 1 -1e-4,0 h -0.10737 a 0.00106708,0.00106708 0 0 1 -1.1e-4,0 0.00106708,0.00106708 0 0 1 -1.1e-4,0 0.00106708,0.00106708 0 0 1 -2.7e-4,-1.1e-4 0.00106708,0.00106708 0 0 1 -1.2e-4,0 0.00106708,0.00106708 0 0 1 -1.1e-4,-1.1e-4 0.00106708,0.00106708 0 0 1 -1e-4,-1.1e-4 0.00106708,0.00106708 0 0 1 -1.2e-4,-1.1e-4 0.00106708,0.00106708 0 0 1 -1.1e-4,-1.1e-4 0.00106708,0.00106708 0 0 1 -1.1e-4,-2.8e-4 0.00106708,0.00106708 0 0 1 -1.1e-4,-1.1e-4 0.00106708,0.00106708 0 0 1 0,-1.1e-4 0.00106708,0.00106708 0 0 1 0,-1.1e-4 0.00106708,0.00106708 0 0 1 0,-1.1e-4 v -0.18042 a 0.00106708,0.00106708 0 0 1 0,-1e-4 0.00106708,0.00106708 0 0 1 0,-1.1e-4 0.00106708,0.00106708 0 0 1 1.1e-4,-2.8e-4 0.00106708,0.00106708 0 0 1 0,-1.1e-4 0.00106708,0.00106708 0 0 1 1.1e-4,-1.1e-4 0.00106708,0.00106708 0 0 1 1.1e-4,-1.1e-4 0.00106708,0.00106708 0 0 1 1.2e-4,-1.1e-4 0.00106708,0.00106708 0 0 1 1e-4,-1.1e-4 0.00106708,0.00106708 0 0 1 2.8e-4,-1.1e-4 0.00106708,0.00106708 0 0 1 1.1e-4,-1.1e-4 z"
           id="path5043"
           inkscape:connector-curvature="0"
           inkscape:export-xdpi="338.42538"
           inkscape:export-ydpi="338.42538" />
        <path
           style="font-style:normal;font-variant:normal;font-weight:normal;font-stretch:normal;font-size:9.51096344px;line-height:1.25;font-family:'SF Alien Encounters Solid';-inkscape-font-specification:'SF Alien Encounters Solid, Normal';font-variant-ligatures:normal;font-variant-caps:normal;font-variant-numeric:normal;font-feature-settings:normal;text-align:start;letter-spacing:0px;word-spacing:0px;writing-mode:lr-tb;text-anchor:start;fill:#bbb9ea;fill-opacity:1;stroke:none;stroke-width:0.01073888"
           d="m -155.68285,-221.45632 v 0.058 h 0.0419 a 0.00106708,0.00106708 0 0 1 1.2e-4,0 0.00106708,0.00106708 0 0 1 1e-4,0 0.00106708,0.00106708 0 0 1 2.8e-4,1.1e-4 0.00106708,0.00106708 0 0 1 1.1e-4,0 0.00106708,0.00106708 0 0 1 1.2e-4,1.1e-4 0.00106708,0.00106708 0 0 1 1e-4,1.1e-4 0.00106708,0.00106708 0 0 1 1.1e-4,1.1e-4 0.00106708,0.00106708 0 0 1 1.2e-4,1.1e-4 0.00106708,0.00106708 0 0 1 1e-4,2.8e-4 0.00106708,0.00106708 0 0 1 1.2e-4,1.1e-4 0.00106708,0.00106708 0 0 1 0,1.1e-4 0.00106708,0.00106708 0 0 1 0,1.1e-4 0.00106708,0.00106708 0 0 1 0,1e-4 v 0.2395 h 0.0622 v -0.2986 z"
           id="path5045"
           inkscape:connector-curvature="0"
           inkscape:export-xdpi="338.42538"
           inkscape:export-ydpi="338.42538" />
        <path
           style="font-style:normal;font-variant:normal;font-weight:normal;font-stretch:normal;font-size:9.51096344px;line-height:1.25;font-family:'SF Alien Encounters Solid';-inkscape-font-specification:'SF Alien Encounters Solid, Normal';font-variant-ligatures:normal;font-variant-caps:normal;font-variant-numeric:normal;font-feature-settings:normal;text-align:start;letter-spacing:0px;word-spacing:0px;writing-mode:lr-tb;text-anchor:start;fill:#bbb9ea;fill-opacity:1;stroke:none;stroke-width:0.01073888"
           d="m -153.68781,-221.45632 v 0.058 h 0.17077 a 0.00106708,0.00106708 0 0 1 1.2e-4,0 0.00106708,0.00106708 0 0 1 1.1e-4,0 0.00106708,0.00106708 0 0 1 2.8e-4,1.1e-4 0.00106708,0.00106708 0 0 1 10e-5,0 0.00106708,0.00106708 0 0 1 1.2e-4,1.1e-4 0.00106708,0.00106708 0 0 1 1e-4,1.1e-4 0.00106708,0.00106708 0 0 1 1.1e-4,1.1e-4 0.00106708,0.00106708 0 0 1 1.2e-4,1.1e-4 0.00106708,0.00106708 0 0 1 1e-4,2.8e-4 0.00106708,0.00106708 0 0 1 1.2e-4,1.1e-4 0.00106708,0.00106708 0 0 1 0,1.1e-4 0.00106708,0.00106708 0 0 1 0,1.1e-4 0.00106708,0.00106708 0 0 1 0,1e-4 v 0.2395 h 0.0623 v -0.25669 c 0,-0.0118 -0.004,-0.0216 -0.0122,-0.0298 -0.008,-0.008 -0.0178,-0.0122 -0.0297,-0.0122 z"
           id="path5047"
           inkscape:connector-curvature="0"
           inkscape:export-xdpi="338.42538"
           inkscape:export-ydpi="338.42538" />
      </g>
    </g>
  </g>
</svg>
